G04 EAGLE Gerber RS-274X export*
G75*
%MOMM*%
%FSLAX34Y34*%
%LPD*%
%INSilkscreen Top*%
%IPPOS*%
%AMOC8*
5,1,8,0,0,1.08239X$1,22.5*%
G01*
%ADD10C,0.101600*%
%ADD11C,0.127000*%
%ADD12C,0.200000*%
%ADD13C,0.063400*%
%ADD14C,0.250000*%
%ADD15C,0.240000*%
%ADD16C,0.076200*%

G36*
X-261289Y73635D02*
X-261289Y73635D01*
X-261260Y73633D01*
X-260603Y73720D01*
X-260567Y73733D01*
X-260507Y73745D01*
X-259895Y73999D01*
X-259864Y74021D01*
X-259809Y74049D01*
X-259282Y74452D01*
X-259258Y74482D01*
X-259212Y74522D01*
X-258809Y75049D01*
X-258793Y75083D01*
X-258759Y75135D01*
X-258505Y75747D01*
X-258499Y75785D01*
X-258481Y75838D01*
X-258481Y75839D01*
X-258480Y75843D01*
X-258393Y76500D01*
X-258395Y76522D01*
X-258390Y76550D01*
X-258390Y81611D01*
X-258273Y82794D01*
X-257934Y83914D01*
X-257382Y84946D01*
X-256640Y85850D01*
X-255736Y86592D01*
X-254704Y87144D01*
X-253584Y87483D01*
X-252401Y87600D01*
X-247340Y87600D01*
X-247319Y87605D01*
X-247290Y87603D01*
X-246633Y87690D01*
X-246597Y87703D01*
X-246537Y87715D01*
X-245925Y87969D01*
X-245894Y87991D01*
X-245839Y88019D01*
X-245312Y88422D01*
X-245288Y88452D01*
X-245242Y88492D01*
X-244839Y89019D01*
X-244823Y89053D01*
X-244789Y89105D01*
X-244535Y89717D01*
X-244529Y89755D01*
X-244510Y89813D01*
X-244423Y90470D01*
X-244425Y90492D01*
X-244420Y90520D01*
X-244420Y98140D01*
X-244425Y98161D01*
X-244423Y98190D01*
X-244510Y98847D01*
X-244523Y98883D01*
X-244535Y98943D01*
X-244789Y99556D01*
X-244811Y99586D01*
X-244839Y99641D01*
X-245242Y100168D01*
X-245272Y100192D01*
X-245312Y100238D01*
X-245839Y100641D01*
X-245873Y100657D01*
X-245925Y100691D01*
X-246537Y100945D01*
X-246575Y100951D01*
X-246633Y100970D01*
X-247290Y101057D01*
X-247312Y101055D01*
X-247340Y101060D01*
X-254960Y101060D01*
X-254981Y101055D01*
X-255010Y101057D01*
X-255667Y100970D01*
X-255703Y100957D01*
X-255763Y100945D01*
X-256376Y100691D01*
X-256406Y100669D01*
X-256461Y100641D01*
X-256988Y100238D01*
X-257012Y100208D01*
X-257058Y100168D01*
X-257461Y99641D01*
X-257477Y99607D01*
X-257511Y99556D01*
X-257765Y98943D01*
X-257771Y98906D01*
X-257790Y98847D01*
X-257877Y98190D01*
X-257875Y98168D01*
X-257880Y98140D01*
X-257880Y93079D01*
X-257997Y91896D01*
X-258336Y90776D01*
X-258888Y89744D01*
X-259630Y88840D01*
X-260534Y88098D01*
X-261566Y87546D01*
X-262686Y87207D01*
X-263869Y87090D01*
X-268930Y87090D01*
X-268951Y87085D01*
X-268980Y87087D01*
X-269637Y87000D01*
X-269673Y86987D01*
X-269733Y86975D01*
X-270346Y86721D01*
X-270376Y86699D01*
X-270431Y86671D01*
X-270958Y86268D01*
X-270982Y86238D01*
X-271028Y86198D01*
X-271431Y85671D01*
X-271447Y85637D01*
X-271481Y85586D01*
X-271735Y84973D01*
X-271741Y84936D01*
X-271760Y84877D01*
X-271847Y84220D01*
X-271845Y84198D01*
X-271850Y84170D01*
X-271850Y76550D01*
X-271845Y76529D01*
X-271847Y76500D01*
X-271760Y75843D01*
X-271753Y75823D01*
X-271753Y75811D01*
X-271745Y75796D01*
X-271735Y75747D01*
X-271481Y75135D01*
X-271459Y75104D01*
X-271431Y75049D01*
X-271028Y74522D01*
X-271023Y74519D01*
X-271023Y74518D01*
X-271016Y74513D01*
X-270998Y74498D01*
X-270958Y74452D01*
X-270431Y74049D01*
X-270397Y74033D01*
X-270346Y73999D01*
X-269733Y73745D01*
X-269696Y73739D01*
X-269637Y73720D01*
X-268980Y73633D01*
X-268958Y73635D01*
X-268930Y73630D01*
X-261310Y73630D01*
X-261289Y73635D01*
G37*
G36*
X-275259Y87605D02*
X-275259Y87605D01*
X-275230Y87603D01*
X-274573Y87690D01*
X-274537Y87703D01*
X-274477Y87715D01*
X-273865Y87969D01*
X-273834Y87991D01*
X-273779Y88019D01*
X-273252Y88422D01*
X-273228Y88452D01*
X-273182Y88492D01*
X-272779Y89019D01*
X-272763Y89053D01*
X-272729Y89105D01*
X-272475Y89717D01*
X-272469Y89755D01*
X-272451Y89807D01*
X-272451Y89809D01*
X-272450Y89813D01*
X-272363Y90470D01*
X-272365Y90492D01*
X-272360Y90520D01*
X-272360Y98140D01*
X-272365Y98161D01*
X-272363Y98190D01*
X-272450Y98847D01*
X-272463Y98883D01*
X-272475Y98943D01*
X-272729Y99556D01*
X-272751Y99586D01*
X-272779Y99641D01*
X-273182Y100168D01*
X-273212Y100192D01*
X-273252Y100238D01*
X-273779Y100641D01*
X-273813Y100657D01*
X-273865Y100691D01*
X-274477Y100945D01*
X-274515Y100951D01*
X-274573Y100970D01*
X-275230Y101057D01*
X-275252Y101055D01*
X-275280Y101060D01*
X-282900Y101060D01*
X-282921Y101055D01*
X-282950Y101057D01*
X-283607Y100970D01*
X-283643Y100957D01*
X-283703Y100945D01*
X-284316Y100691D01*
X-284346Y100669D01*
X-284401Y100641D01*
X-284928Y100238D01*
X-284952Y100208D01*
X-284998Y100168D01*
X-285401Y99641D01*
X-285417Y99607D01*
X-285451Y99556D01*
X-285705Y98943D01*
X-285711Y98906D01*
X-285730Y98847D01*
X-285817Y98190D01*
X-285815Y98168D01*
X-285820Y98140D01*
X-285820Y90520D01*
X-285815Y90499D01*
X-285817Y90470D01*
X-285730Y89813D01*
X-285723Y89793D01*
X-285723Y89781D01*
X-285715Y89766D01*
X-285705Y89717D01*
X-285451Y89105D01*
X-285429Y89074D01*
X-285401Y89019D01*
X-284998Y88492D01*
X-284993Y88489D01*
X-284993Y88488D01*
X-284986Y88483D01*
X-284968Y88468D01*
X-284928Y88422D01*
X-284401Y88019D01*
X-284367Y88003D01*
X-284316Y87969D01*
X-283703Y87715D01*
X-283666Y87709D01*
X-283607Y87690D01*
X-282950Y87603D01*
X-282928Y87605D01*
X-282900Y87600D01*
X-275280Y87600D01*
X-275259Y87605D01*
G37*
D10*
X-876808Y412101D02*
X-876808Y409504D01*
X-876810Y409405D01*
X-876816Y409305D01*
X-876825Y409206D01*
X-876838Y409108D01*
X-876855Y409010D01*
X-876876Y408912D01*
X-876901Y408816D01*
X-876929Y408721D01*
X-876961Y408627D01*
X-876996Y408534D01*
X-877035Y408442D01*
X-877078Y408352D01*
X-877123Y408264D01*
X-877173Y408177D01*
X-877225Y408093D01*
X-877281Y408010D01*
X-877339Y407930D01*
X-877401Y407852D01*
X-877466Y407777D01*
X-877534Y407704D01*
X-877604Y407634D01*
X-877677Y407566D01*
X-877752Y407501D01*
X-877830Y407439D01*
X-877910Y407381D01*
X-877993Y407325D01*
X-878077Y407273D01*
X-878164Y407223D01*
X-878252Y407178D01*
X-878342Y407135D01*
X-878434Y407096D01*
X-878527Y407061D01*
X-878621Y407029D01*
X-878716Y407001D01*
X-878812Y406976D01*
X-878910Y406955D01*
X-879008Y406938D01*
X-879106Y406925D01*
X-879205Y406916D01*
X-879305Y406910D01*
X-879404Y406908D01*
X-885896Y406908D01*
X-885995Y406910D01*
X-886095Y406916D01*
X-886194Y406925D01*
X-886292Y406938D01*
X-886390Y406955D01*
X-886488Y406976D01*
X-886584Y407001D01*
X-886679Y407029D01*
X-886773Y407061D01*
X-886866Y407096D01*
X-886958Y407135D01*
X-887048Y407178D01*
X-887136Y407223D01*
X-887223Y407273D01*
X-887307Y407325D01*
X-887390Y407381D01*
X-887470Y407439D01*
X-887548Y407501D01*
X-887623Y407566D01*
X-887696Y407634D01*
X-887766Y407704D01*
X-887834Y407777D01*
X-887899Y407852D01*
X-887961Y407930D01*
X-888019Y408010D01*
X-888075Y408093D01*
X-888127Y408177D01*
X-888177Y408264D01*
X-888222Y408352D01*
X-888265Y408442D01*
X-888304Y408534D01*
X-888339Y408626D01*
X-888371Y408721D01*
X-888399Y408816D01*
X-888424Y408912D01*
X-888445Y409010D01*
X-888462Y409108D01*
X-888475Y409206D01*
X-888484Y409305D01*
X-888490Y409405D01*
X-888492Y409504D01*
X-888492Y412101D01*
X-885896Y416466D02*
X-888492Y419712D01*
X-876808Y419712D01*
X-876808Y422957D02*
X-876808Y416466D01*
D11*
X-1066800Y434200D02*
X-1068600Y434200D01*
X-1068600Y353200D01*
X-1066800Y353200D01*
X-1041400Y434200D02*
X-1025600Y434200D01*
X-1025600Y411900D01*
X-1025600Y375500D02*
X-1025600Y353200D01*
X-1041400Y353200D01*
D12*
X-1022100Y414700D02*
X-1022098Y414763D01*
X-1022092Y414825D01*
X-1022082Y414887D01*
X-1022069Y414949D01*
X-1022051Y415009D01*
X-1022030Y415068D01*
X-1022005Y415126D01*
X-1021976Y415182D01*
X-1021944Y415236D01*
X-1021909Y415288D01*
X-1021871Y415337D01*
X-1021829Y415385D01*
X-1021785Y415429D01*
X-1021737Y415471D01*
X-1021688Y415509D01*
X-1021636Y415544D01*
X-1021582Y415576D01*
X-1021526Y415605D01*
X-1021468Y415630D01*
X-1021409Y415651D01*
X-1021349Y415669D01*
X-1021287Y415682D01*
X-1021225Y415692D01*
X-1021163Y415698D01*
X-1021100Y415700D01*
X-1021037Y415698D01*
X-1020975Y415692D01*
X-1020913Y415682D01*
X-1020851Y415669D01*
X-1020791Y415651D01*
X-1020732Y415630D01*
X-1020674Y415605D01*
X-1020618Y415576D01*
X-1020564Y415544D01*
X-1020512Y415509D01*
X-1020463Y415471D01*
X-1020415Y415429D01*
X-1020371Y415385D01*
X-1020329Y415337D01*
X-1020291Y415288D01*
X-1020256Y415236D01*
X-1020224Y415182D01*
X-1020195Y415126D01*
X-1020170Y415068D01*
X-1020149Y415009D01*
X-1020131Y414949D01*
X-1020118Y414887D01*
X-1020108Y414825D01*
X-1020102Y414763D01*
X-1020100Y414700D01*
X-1020102Y414637D01*
X-1020108Y414575D01*
X-1020118Y414513D01*
X-1020131Y414451D01*
X-1020149Y414391D01*
X-1020170Y414332D01*
X-1020195Y414274D01*
X-1020224Y414218D01*
X-1020256Y414164D01*
X-1020291Y414112D01*
X-1020329Y414063D01*
X-1020371Y414015D01*
X-1020415Y413971D01*
X-1020463Y413929D01*
X-1020512Y413891D01*
X-1020564Y413856D01*
X-1020618Y413824D01*
X-1020674Y413795D01*
X-1020732Y413770D01*
X-1020791Y413749D01*
X-1020851Y413731D01*
X-1020913Y413718D01*
X-1020975Y413708D01*
X-1021037Y413702D01*
X-1021100Y413700D01*
X-1021163Y413702D01*
X-1021225Y413708D01*
X-1021287Y413718D01*
X-1021349Y413731D01*
X-1021409Y413749D01*
X-1021468Y413770D01*
X-1021526Y413795D01*
X-1021582Y413824D01*
X-1021636Y413856D01*
X-1021688Y413891D01*
X-1021737Y413929D01*
X-1021785Y413971D01*
X-1021829Y414015D01*
X-1021871Y414063D01*
X-1021909Y414112D01*
X-1021944Y414164D01*
X-1021976Y414218D01*
X-1022005Y414274D01*
X-1022030Y414332D01*
X-1022051Y414391D01*
X-1022069Y414451D01*
X-1022082Y414513D01*
X-1022092Y414575D01*
X-1022098Y414637D01*
X-1022100Y414700D01*
D10*
X-1002592Y345228D02*
X-993504Y345228D01*
X-993504Y345227D02*
X-993405Y345225D01*
X-993305Y345219D01*
X-993206Y345210D01*
X-993108Y345197D01*
X-993010Y345180D01*
X-992912Y345159D01*
X-992816Y345134D01*
X-992721Y345106D01*
X-992627Y345074D01*
X-992534Y345039D01*
X-992442Y345000D01*
X-992352Y344957D01*
X-992264Y344912D01*
X-992177Y344862D01*
X-992093Y344810D01*
X-992010Y344754D01*
X-991930Y344696D01*
X-991852Y344634D01*
X-991777Y344569D01*
X-991704Y344501D01*
X-991634Y344431D01*
X-991566Y344358D01*
X-991501Y344283D01*
X-991439Y344205D01*
X-991381Y344125D01*
X-991325Y344042D01*
X-991273Y343958D01*
X-991223Y343871D01*
X-991178Y343783D01*
X-991135Y343693D01*
X-991096Y343601D01*
X-991061Y343508D01*
X-991029Y343414D01*
X-991001Y343319D01*
X-990976Y343223D01*
X-990955Y343125D01*
X-990938Y343027D01*
X-990925Y342929D01*
X-990916Y342830D01*
X-990910Y342730D01*
X-990908Y342631D01*
X-990908Y341333D01*
X-999996Y350501D02*
X-1002592Y353746D01*
X-990908Y353746D01*
X-990908Y350501D02*
X-990908Y356992D01*
D13*
X-446000Y368300D02*
X-444250Y366550D01*
X-446000Y368300D02*
X-444500Y369800D01*
X-442750Y368050D01*
X-444250Y366550D01*
D14*
X-448500Y365550D03*
D10*
X-455008Y353808D02*
X-466692Y353808D01*
X-455008Y353808D02*
X-455008Y359001D01*
X-455008Y363714D02*
X-455008Y368907D01*
X-455008Y363714D02*
X-466692Y363714D01*
X-466692Y368907D01*
X-461499Y367609D02*
X-461499Y363714D01*
X-466692Y373597D02*
X-455008Y373597D01*
X-466692Y373597D02*
X-466692Y376843D01*
X-466690Y376956D01*
X-466684Y377069D01*
X-466674Y377182D01*
X-466660Y377295D01*
X-466643Y377407D01*
X-466621Y377518D01*
X-466596Y377628D01*
X-466566Y377738D01*
X-466533Y377846D01*
X-466496Y377953D01*
X-466456Y378059D01*
X-466411Y378163D01*
X-466363Y378266D01*
X-466312Y378367D01*
X-466257Y378466D01*
X-466199Y378563D01*
X-466137Y378658D01*
X-466072Y378751D01*
X-466004Y378841D01*
X-465933Y378929D01*
X-465858Y379015D01*
X-465781Y379098D01*
X-465701Y379178D01*
X-465618Y379255D01*
X-465532Y379330D01*
X-465444Y379401D01*
X-465354Y379469D01*
X-465261Y379534D01*
X-465166Y379596D01*
X-465069Y379654D01*
X-464970Y379709D01*
X-464869Y379760D01*
X-464766Y379808D01*
X-464662Y379853D01*
X-464556Y379893D01*
X-464449Y379930D01*
X-464341Y379963D01*
X-464231Y379993D01*
X-464121Y380018D01*
X-464010Y380040D01*
X-463898Y380057D01*
X-463785Y380071D01*
X-463672Y380081D01*
X-463559Y380087D01*
X-463446Y380089D01*
X-458254Y380089D01*
X-458141Y380087D01*
X-458028Y380081D01*
X-457915Y380071D01*
X-457802Y380057D01*
X-457690Y380040D01*
X-457579Y380018D01*
X-457469Y379993D01*
X-457359Y379963D01*
X-457251Y379930D01*
X-457144Y379893D01*
X-457038Y379853D01*
X-456934Y379808D01*
X-456831Y379760D01*
X-456730Y379709D01*
X-456631Y379654D01*
X-456534Y379596D01*
X-456439Y379534D01*
X-456346Y379469D01*
X-456256Y379401D01*
X-456168Y379330D01*
X-456082Y379255D01*
X-455999Y379178D01*
X-455919Y379098D01*
X-455842Y379015D01*
X-455767Y378929D01*
X-455696Y378841D01*
X-455628Y378751D01*
X-455563Y378658D01*
X-455501Y378563D01*
X-455443Y378466D01*
X-455388Y378367D01*
X-455337Y378266D01*
X-455289Y378163D01*
X-455244Y378059D01*
X-455204Y377953D01*
X-455167Y377846D01*
X-455134Y377738D01*
X-455104Y377628D01*
X-455079Y377518D01*
X-455057Y377407D01*
X-455040Y377295D01*
X-455026Y377182D01*
X-455016Y377069D01*
X-455010Y376956D01*
X-455008Y376843D01*
X-455008Y373597D01*
X-464096Y385408D02*
X-466692Y388654D01*
X-455008Y388654D01*
X-455008Y391899D02*
X-455008Y385408D01*
X-711708Y419608D02*
X-723392Y419608D01*
X-723392Y422854D01*
X-723390Y422967D01*
X-723384Y423080D01*
X-723374Y423193D01*
X-723360Y423306D01*
X-723343Y423418D01*
X-723321Y423529D01*
X-723296Y423639D01*
X-723266Y423749D01*
X-723233Y423857D01*
X-723196Y423964D01*
X-723156Y424070D01*
X-723111Y424174D01*
X-723063Y424277D01*
X-723012Y424378D01*
X-722957Y424477D01*
X-722899Y424574D01*
X-722837Y424669D01*
X-722772Y424762D01*
X-722704Y424852D01*
X-722633Y424940D01*
X-722558Y425026D01*
X-722481Y425109D01*
X-722401Y425189D01*
X-722318Y425266D01*
X-722232Y425341D01*
X-722144Y425412D01*
X-722054Y425480D01*
X-721961Y425545D01*
X-721866Y425607D01*
X-721769Y425665D01*
X-721670Y425720D01*
X-721569Y425771D01*
X-721466Y425819D01*
X-721362Y425864D01*
X-721256Y425904D01*
X-721149Y425941D01*
X-721041Y425974D01*
X-720931Y426004D01*
X-720821Y426029D01*
X-720710Y426051D01*
X-720598Y426068D01*
X-720485Y426082D01*
X-720372Y426092D01*
X-720259Y426098D01*
X-720146Y426100D01*
X-720033Y426098D01*
X-719920Y426092D01*
X-719807Y426082D01*
X-719694Y426068D01*
X-719582Y426051D01*
X-719471Y426029D01*
X-719361Y426004D01*
X-719251Y425974D01*
X-719143Y425941D01*
X-719036Y425904D01*
X-718930Y425864D01*
X-718826Y425819D01*
X-718723Y425771D01*
X-718622Y425720D01*
X-718523Y425665D01*
X-718426Y425607D01*
X-718331Y425545D01*
X-718238Y425480D01*
X-718148Y425412D01*
X-718060Y425341D01*
X-717974Y425266D01*
X-717891Y425189D01*
X-717811Y425109D01*
X-717734Y425026D01*
X-717659Y424940D01*
X-717588Y424852D01*
X-717520Y424762D01*
X-717455Y424669D01*
X-717393Y424574D01*
X-717335Y424477D01*
X-717280Y424378D01*
X-717229Y424277D01*
X-717181Y424174D01*
X-717136Y424070D01*
X-717096Y423964D01*
X-717059Y423857D01*
X-717026Y423749D01*
X-716996Y423639D01*
X-716971Y423529D01*
X-716949Y423418D01*
X-716932Y423306D01*
X-716918Y423193D01*
X-716908Y423080D01*
X-716902Y422967D01*
X-716900Y422854D01*
X-716901Y422854D02*
X-716901Y419608D01*
X-716901Y423503D02*
X-711708Y426099D01*
X-720796Y430964D02*
X-723392Y434210D01*
X-711708Y434210D01*
X-711708Y437455D02*
X-711708Y430964D01*
D11*
X-462500Y170400D02*
X-462500Y143900D01*
X-462500Y170400D02*
X-456500Y170400D01*
X-426500Y170400D02*
X-426500Y143900D01*
X-426500Y170400D02*
X-432500Y170400D01*
D15*
X-461280Y122943D02*
X-461278Y123012D01*
X-461272Y123081D01*
X-461262Y123149D01*
X-461248Y123217D01*
X-461231Y123284D01*
X-461209Y123350D01*
X-461184Y123414D01*
X-461155Y123477D01*
X-461122Y123538D01*
X-461086Y123597D01*
X-461047Y123654D01*
X-461004Y123708D01*
X-460959Y123760D01*
X-460910Y123810D01*
X-460859Y123856D01*
X-460805Y123899D01*
X-460748Y123940D01*
X-460690Y123976D01*
X-460629Y124010D01*
X-460567Y124040D01*
X-460503Y124066D01*
X-460438Y124088D01*
X-460371Y124107D01*
X-460303Y124122D01*
X-460235Y124133D01*
X-460166Y124140D01*
X-460097Y124143D01*
X-460028Y124142D01*
X-459959Y124137D01*
X-459891Y124128D01*
X-459823Y124115D01*
X-459756Y124098D01*
X-459689Y124078D01*
X-459625Y124053D01*
X-459562Y124025D01*
X-459500Y123994D01*
X-459441Y123958D01*
X-459383Y123920D01*
X-459328Y123878D01*
X-459275Y123833D01*
X-459225Y123785D01*
X-459178Y123735D01*
X-459134Y123681D01*
X-459093Y123626D01*
X-459055Y123568D01*
X-459021Y123508D01*
X-458990Y123446D01*
X-458963Y123382D01*
X-458940Y123317D01*
X-458920Y123251D01*
X-458904Y123183D01*
X-458892Y123115D01*
X-458884Y123047D01*
X-458880Y122978D01*
X-458880Y122908D01*
X-458884Y122839D01*
X-458892Y122771D01*
X-458904Y122703D01*
X-458920Y122635D01*
X-458940Y122569D01*
X-458963Y122504D01*
X-458990Y122440D01*
X-459021Y122378D01*
X-459055Y122318D01*
X-459093Y122260D01*
X-459134Y122205D01*
X-459178Y122151D01*
X-459225Y122101D01*
X-459275Y122053D01*
X-459328Y122008D01*
X-459383Y121966D01*
X-459441Y121928D01*
X-459500Y121892D01*
X-459562Y121861D01*
X-459625Y121833D01*
X-459689Y121808D01*
X-459756Y121788D01*
X-459823Y121771D01*
X-459891Y121758D01*
X-459959Y121749D01*
X-460028Y121744D01*
X-460097Y121743D01*
X-460166Y121746D01*
X-460235Y121753D01*
X-460303Y121764D01*
X-460371Y121779D01*
X-460438Y121798D01*
X-460503Y121820D01*
X-460567Y121846D01*
X-460629Y121876D01*
X-460690Y121910D01*
X-460748Y121946D01*
X-460805Y121987D01*
X-460859Y122030D01*
X-460910Y122076D01*
X-460959Y122126D01*
X-461004Y122178D01*
X-461047Y122232D01*
X-461086Y122289D01*
X-461122Y122348D01*
X-461155Y122409D01*
X-461184Y122472D01*
X-461209Y122536D01*
X-461231Y122602D01*
X-461248Y122669D01*
X-461262Y122737D01*
X-461272Y122805D01*
X-461278Y122874D01*
X-461280Y122943D01*
D10*
X-468742Y124096D02*
X-480428Y124096D01*
X-480428Y127342D01*
X-480426Y127455D01*
X-480420Y127568D01*
X-480410Y127681D01*
X-480396Y127794D01*
X-480379Y127906D01*
X-480357Y128017D01*
X-480332Y128127D01*
X-480302Y128237D01*
X-480269Y128345D01*
X-480232Y128452D01*
X-480192Y128558D01*
X-480147Y128662D01*
X-480099Y128765D01*
X-480048Y128866D01*
X-479993Y128965D01*
X-479935Y129062D01*
X-479873Y129157D01*
X-479808Y129250D01*
X-479740Y129340D01*
X-479669Y129428D01*
X-479594Y129514D01*
X-479517Y129597D01*
X-479437Y129677D01*
X-479354Y129754D01*
X-479268Y129829D01*
X-479180Y129900D01*
X-479090Y129968D01*
X-478997Y130033D01*
X-478902Y130095D01*
X-478805Y130153D01*
X-478706Y130208D01*
X-478605Y130259D01*
X-478502Y130307D01*
X-478398Y130352D01*
X-478292Y130392D01*
X-478185Y130429D01*
X-478077Y130462D01*
X-477967Y130492D01*
X-477857Y130517D01*
X-477746Y130539D01*
X-477634Y130556D01*
X-477521Y130570D01*
X-477408Y130580D01*
X-477295Y130586D01*
X-477182Y130588D01*
X-477069Y130586D01*
X-476956Y130580D01*
X-476843Y130570D01*
X-476730Y130556D01*
X-476618Y130539D01*
X-476507Y130517D01*
X-476397Y130492D01*
X-476287Y130462D01*
X-476179Y130429D01*
X-476072Y130392D01*
X-475966Y130352D01*
X-475862Y130307D01*
X-475759Y130259D01*
X-475658Y130208D01*
X-475559Y130153D01*
X-475462Y130095D01*
X-475367Y130033D01*
X-475274Y129968D01*
X-475184Y129900D01*
X-475096Y129829D01*
X-475010Y129754D01*
X-474927Y129677D01*
X-474847Y129597D01*
X-474770Y129514D01*
X-474695Y129428D01*
X-474624Y129340D01*
X-474556Y129250D01*
X-474491Y129157D01*
X-474429Y129062D01*
X-474371Y128965D01*
X-474316Y128866D01*
X-474265Y128765D01*
X-474217Y128662D01*
X-474172Y128558D01*
X-474132Y128452D01*
X-474095Y128345D01*
X-474062Y128237D01*
X-474032Y128127D01*
X-474007Y128017D01*
X-473985Y127906D01*
X-473968Y127794D01*
X-473954Y127681D01*
X-473944Y127568D01*
X-473938Y127455D01*
X-473936Y127342D01*
X-473935Y127342D02*
X-473935Y124096D01*
X-473935Y127991D02*
X-468742Y130588D01*
X-477506Y141947D02*
X-477613Y141945D01*
X-477719Y141939D01*
X-477826Y141929D01*
X-477931Y141916D01*
X-478037Y141898D01*
X-478141Y141877D01*
X-478245Y141852D01*
X-478348Y141823D01*
X-478449Y141790D01*
X-478550Y141754D01*
X-478649Y141714D01*
X-478746Y141671D01*
X-478842Y141624D01*
X-478936Y141573D01*
X-479028Y141519D01*
X-479118Y141462D01*
X-479206Y141401D01*
X-479292Y141338D01*
X-479375Y141271D01*
X-479456Y141201D01*
X-479534Y141129D01*
X-479610Y141053D01*
X-479682Y140975D01*
X-479752Y140894D01*
X-479819Y140811D01*
X-479882Y140725D01*
X-479943Y140637D01*
X-480000Y140547D01*
X-480054Y140455D01*
X-480105Y140361D01*
X-480152Y140265D01*
X-480195Y140168D01*
X-480235Y140069D01*
X-480271Y139968D01*
X-480304Y139867D01*
X-480333Y139764D01*
X-480358Y139660D01*
X-480379Y139556D01*
X-480397Y139450D01*
X-480410Y139345D01*
X-480420Y139238D01*
X-480426Y139132D01*
X-480428Y139025D01*
X-480427Y139025D02*
X-480425Y138904D01*
X-480419Y138783D01*
X-480409Y138663D01*
X-480396Y138542D01*
X-480378Y138423D01*
X-480357Y138303D01*
X-480332Y138185D01*
X-480303Y138068D01*
X-480270Y137951D01*
X-480234Y137836D01*
X-480193Y137722D01*
X-480150Y137609D01*
X-480102Y137497D01*
X-480051Y137388D01*
X-479996Y137280D01*
X-479938Y137173D01*
X-479877Y137069D01*
X-479812Y136967D01*
X-479744Y136867D01*
X-479673Y136769D01*
X-479599Y136673D01*
X-479522Y136580D01*
X-479441Y136490D01*
X-479358Y136402D01*
X-479272Y136317D01*
X-479183Y136234D01*
X-479092Y136155D01*
X-478998Y136078D01*
X-478902Y136005D01*
X-478804Y135935D01*
X-478703Y135868D01*
X-478600Y135804D01*
X-478495Y135744D01*
X-478388Y135687D01*
X-478280Y135633D01*
X-478170Y135583D01*
X-478058Y135537D01*
X-477945Y135494D01*
X-477830Y135455D01*
X-475234Y140972D02*
X-475311Y141051D01*
X-475392Y141127D01*
X-475474Y141200D01*
X-475560Y141270D01*
X-475648Y141337D01*
X-475738Y141401D01*
X-475830Y141461D01*
X-475925Y141518D01*
X-476021Y141572D01*
X-476119Y141623D01*
X-476219Y141670D01*
X-476321Y141714D01*
X-476424Y141754D01*
X-476528Y141790D01*
X-476634Y141822D01*
X-476740Y141851D01*
X-476848Y141876D01*
X-476956Y141898D01*
X-477066Y141915D01*
X-477175Y141929D01*
X-477285Y141938D01*
X-477396Y141944D01*
X-477506Y141946D01*
X-475234Y140973D02*
X-468742Y135454D01*
X-468742Y141946D01*
X-456692Y451358D02*
X-445008Y451358D01*
X-456692Y451358D02*
X-456692Y454604D01*
X-456690Y454717D01*
X-456684Y454830D01*
X-456674Y454943D01*
X-456660Y455056D01*
X-456643Y455168D01*
X-456621Y455279D01*
X-456596Y455389D01*
X-456566Y455499D01*
X-456533Y455607D01*
X-456496Y455714D01*
X-456456Y455820D01*
X-456411Y455924D01*
X-456363Y456027D01*
X-456312Y456128D01*
X-456257Y456227D01*
X-456199Y456324D01*
X-456137Y456419D01*
X-456072Y456512D01*
X-456004Y456602D01*
X-455933Y456690D01*
X-455858Y456776D01*
X-455781Y456859D01*
X-455701Y456939D01*
X-455618Y457016D01*
X-455532Y457091D01*
X-455444Y457162D01*
X-455354Y457230D01*
X-455261Y457295D01*
X-455166Y457357D01*
X-455069Y457415D01*
X-454970Y457470D01*
X-454869Y457521D01*
X-454766Y457569D01*
X-454662Y457614D01*
X-454556Y457654D01*
X-454449Y457691D01*
X-454341Y457724D01*
X-454231Y457754D01*
X-454121Y457779D01*
X-454010Y457801D01*
X-453898Y457818D01*
X-453785Y457832D01*
X-453672Y457842D01*
X-453559Y457848D01*
X-453446Y457850D01*
X-453333Y457848D01*
X-453220Y457842D01*
X-453107Y457832D01*
X-452994Y457818D01*
X-452882Y457801D01*
X-452771Y457779D01*
X-452661Y457754D01*
X-452551Y457724D01*
X-452443Y457691D01*
X-452336Y457654D01*
X-452230Y457614D01*
X-452126Y457569D01*
X-452023Y457521D01*
X-451922Y457470D01*
X-451823Y457415D01*
X-451726Y457357D01*
X-451631Y457295D01*
X-451538Y457230D01*
X-451448Y457162D01*
X-451360Y457091D01*
X-451274Y457016D01*
X-451191Y456939D01*
X-451111Y456859D01*
X-451034Y456776D01*
X-450959Y456690D01*
X-450888Y456602D01*
X-450820Y456512D01*
X-450755Y456419D01*
X-450693Y456324D01*
X-450635Y456227D01*
X-450580Y456128D01*
X-450529Y456027D01*
X-450481Y455924D01*
X-450436Y455820D01*
X-450396Y455714D01*
X-450359Y455607D01*
X-450326Y455499D01*
X-450296Y455389D01*
X-450271Y455279D01*
X-450249Y455168D01*
X-450232Y455056D01*
X-450218Y454943D01*
X-450208Y454830D01*
X-450202Y454717D01*
X-450200Y454604D01*
X-450201Y454604D02*
X-450201Y451358D01*
X-450201Y455253D02*
X-445008Y457849D01*
X-445008Y462714D02*
X-445008Y465960D01*
X-445010Y466073D01*
X-445016Y466186D01*
X-445026Y466299D01*
X-445040Y466412D01*
X-445057Y466524D01*
X-445079Y466635D01*
X-445104Y466745D01*
X-445134Y466855D01*
X-445167Y466963D01*
X-445204Y467070D01*
X-445244Y467176D01*
X-445289Y467280D01*
X-445337Y467383D01*
X-445388Y467484D01*
X-445443Y467583D01*
X-445501Y467680D01*
X-445563Y467775D01*
X-445628Y467868D01*
X-445696Y467958D01*
X-445767Y468046D01*
X-445842Y468132D01*
X-445919Y468215D01*
X-445999Y468295D01*
X-446082Y468372D01*
X-446168Y468447D01*
X-446256Y468518D01*
X-446346Y468586D01*
X-446439Y468651D01*
X-446534Y468713D01*
X-446631Y468771D01*
X-446730Y468826D01*
X-446831Y468877D01*
X-446934Y468925D01*
X-447038Y468970D01*
X-447144Y469010D01*
X-447251Y469047D01*
X-447359Y469080D01*
X-447469Y469110D01*
X-447579Y469135D01*
X-447690Y469157D01*
X-447802Y469174D01*
X-447915Y469188D01*
X-448028Y469198D01*
X-448141Y469204D01*
X-448254Y469206D01*
X-448367Y469204D01*
X-448480Y469198D01*
X-448593Y469188D01*
X-448706Y469174D01*
X-448818Y469157D01*
X-448929Y469135D01*
X-449039Y469110D01*
X-449149Y469080D01*
X-449257Y469047D01*
X-449364Y469010D01*
X-449470Y468970D01*
X-449574Y468925D01*
X-449677Y468877D01*
X-449778Y468826D01*
X-449877Y468771D01*
X-449974Y468713D01*
X-450069Y468651D01*
X-450162Y468586D01*
X-450252Y468518D01*
X-450340Y468447D01*
X-450426Y468372D01*
X-450509Y468295D01*
X-450589Y468215D01*
X-450666Y468132D01*
X-450741Y468046D01*
X-450812Y467958D01*
X-450880Y467868D01*
X-450945Y467775D01*
X-451007Y467680D01*
X-451065Y467583D01*
X-451120Y467484D01*
X-451171Y467383D01*
X-451219Y467280D01*
X-451264Y467176D01*
X-451304Y467070D01*
X-451341Y466963D01*
X-451374Y466855D01*
X-451404Y466745D01*
X-451429Y466635D01*
X-451451Y466524D01*
X-451468Y466412D01*
X-451482Y466299D01*
X-451492Y466186D01*
X-451498Y466073D01*
X-451500Y465960D01*
X-456692Y466609D02*
X-456692Y462714D01*
X-456692Y466609D02*
X-456690Y466710D01*
X-456684Y466810D01*
X-456674Y466910D01*
X-456661Y467010D01*
X-456643Y467109D01*
X-456622Y467208D01*
X-456597Y467305D01*
X-456568Y467402D01*
X-456535Y467497D01*
X-456499Y467591D01*
X-456459Y467683D01*
X-456416Y467774D01*
X-456369Y467863D01*
X-456319Y467950D01*
X-456265Y468036D01*
X-456208Y468119D01*
X-456148Y468199D01*
X-456085Y468278D01*
X-456018Y468354D01*
X-455949Y468427D01*
X-455877Y468497D01*
X-455803Y468565D01*
X-455726Y468630D01*
X-455646Y468691D01*
X-455564Y468750D01*
X-455480Y468805D01*
X-455394Y468857D01*
X-455306Y468906D01*
X-455216Y468951D01*
X-455124Y468993D01*
X-455031Y469031D01*
X-454936Y469065D01*
X-454841Y469096D01*
X-454744Y469123D01*
X-454646Y469146D01*
X-454547Y469166D01*
X-454447Y469181D01*
X-454347Y469193D01*
X-454247Y469201D01*
X-454146Y469205D01*
X-454046Y469205D01*
X-453945Y469201D01*
X-453845Y469193D01*
X-453745Y469181D01*
X-453645Y469166D01*
X-453546Y469146D01*
X-453448Y469123D01*
X-453351Y469096D01*
X-453256Y469065D01*
X-453161Y469031D01*
X-453068Y468993D01*
X-452976Y468951D01*
X-452886Y468906D01*
X-452798Y468857D01*
X-452712Y468805D01*
X-452628Y468750D01*
X-452546Y468691D01*
X-452466Y468630D01*
X-452389Y468565D01*
X-452315Y468497D01*
X-452243Y468427D01*
X-452174Y468354D01*
X-452107Y468278D01*
X-452044Y468199D01*
X-451984Y468119D01*
X-451927Y468036D01*
X-451873Y467950D01*
X-451823Y467863D01*
X-451776Y467774D01*
X-451733Y467683D01*
X-451693Y467591D01*
X-451657Y467497D01*
X-451624Y467402D01*
X-451595Y467305D01*
X-451570Y467208D01*
X-451549Y467109D01*
X-451531Y467010D01*
X-451518Y466910D01*
X-451508Y466810D01*
X-451502Y466710D01*
X-451500Y466609D01*
X-451499Y466609D02*
X-451499Y464013D01*
X-459796Y297942D02*
X-459796Y286258D01*
X-463042Y297942D02*
X-456551Y297942D01*
X-452374Y295346D02*
X-449129Y297942D01*
X-449129Y286258D01*
X-452374Y286258D02*
X-445883Y286258D01*
X-635508Y410154D02*
X-647192Y410154D01*
X-647192Y413399D02*
X-647192Y406908D01*
X-647192Y418126D02*
X-635508Y418126D01*
X-647192Y418126D02*
X-647192Y421372D01*
X-647190Y421485D01*
X-647184Y421598D01*
X-647174Y421711D01*
X-647160Y421824D01*
X-647143Y421936D01*
X-647121Y422047D01*
X-647096Y422157D01*
X-647066Y422267D01*
X-647033Y422375D01*
X-646996Y422482D01*
X-646956Y422588D01*
X-646911Y422692D01*
X-646863Y422795D01*
X-646812Y422896D01*
X-646757Y422995D01*
X-646699Y423092D01*
X-646637Y423187D01*
X-646572Y423280D01*
X-646504Y423370D01*
X-646433Y423458D01*
X-646358Y423544D01*
X-646281Y423627D01*
X-646201Y423707D01*
X-646118Y423784D01*
X-646032Y423859D01*
X-645944Y423930D01*
X-645854Y423998D01*
X-645761Y424063D01*
X-645666Y424125D01*
X-645569Y424183D01*
X-645470Y424238D01*
X-645369Y424289D01*
X-645266Y424337D01*
X-645162Y424382D01*
X-645056Y424422D01*
X-644949Y424459D01*
X-644841Y424492D01*
X-644731Y424522D01*
X-644621Y424547D01*
X-644510Y424569D01*
X-644398Y424586D01*
X-644285Y424600D01*
X-644172Y424610D01*
X-644059Y424616D01*
X-643946Y424618D01*
X-643833Y424616D01*
X-643720Y424610D01*
X-643607Y424600D01*
X-643494Y424586D01*
X-643382Y424569D01*
X-643271Y424547D01*
X-643161Y424522D01*
X-643051Y424492D01*
X-642943Y424459D01*
X-642836Y424422D01*
X-642730Y424382D01*
X-642626Y424337D01*
X-642523Y424289D01*
X-642422Y424238D01*
X-642323Y424183D01*
X-642226Y424125D01*
X-642131Y424063D01*
X-642038Y423998D01*
X-641948Y423930D01*
X-641860Y423859D01*
X-641774Y423784D01*
X-641691Y423707D01*
X-641611Y423627D01*
X-641534Y423544D01*
X-641459Y423458D01*
X-641388Y423370D01*
X-641320Y423280D01*
X-641255Y423187D01*
X-641193Y423092D01*
X-641135Y422995D01*
X-641080Y422896D01*
X-641029Y422795D01*
X-640981Y422692D01*
X-640936Y422588D01*
X-640896Y422482D01*
X-640859Y422375D01*
X-640826Y422267D01*
X-640796Y422157D01*
X-640771Y422047D01*
X-640749Y421936D01*
X-640732Y421824D01*
X-640718Y421711D01*
X-640708Y421598D01*
X-640702Y421485D01*
X-640700Y421372D01*
X-640701Y421372D02*
X-640701Y418126D01*
X-644596Y429006D02*
X-647192Y432251D01*
X-635508Y432251D01*
X-635508Y429006D02*
X-635508Y435497D01*
X-351846Y291592D02*
X-351846Y279908D01*
X-355092Y291592D02*
X-348601Y291592D01*
X-343874Y291592D02*
X-343874Y279908D01*
X-343874Y291592D02*
X-340628Y291592D01*
X-340515Y291590D01*
X-340402Y291584D01*
X-340289Y291574D01*
X-340176Y291560D01*
X-340064Y291543D01*
X-339953Y291521D01*
X-339843Y291496D01*
X-339733Y291466D01*
X-339625Y291433D01*
X-339518Y291396D01*
X-339412Y291356D01*
X-339308Y291311D01*
X-339205Y291263D01*
X-339104Y291212D01*
X-339005Y291157D01*
X-338908Y291099D01*
X-338813Y291037D01*
X-338720Y290972D01*
X-338630Y290904D01*
X-338542Y290833D01*
X-338456Y290758D01*
X-338373Y290681D01*
X-338293Y290601D01*
X-338216Y290518D01*
X-338141Y290432D01*
X-338070Y290344D01*
X-338002Y290254D01*
X-337937Y290161D01*
X-337875Y290066D01*
X-337817Y289969D01*
X-337762Y289870D01*
X-337711Y289769D01*
X-337663Y289666D01*
X-337618Y289562D01*
X-337578Y289456D01*
X-337541Y289349D01*
X-337508Y289241D01*
X-337478Y289131D01*
X-337453Y289021D01*
X-337431Y288910D01*
X-337414Y288798D01*
X-337400Y288685D01*
X-337390Y288572D01*
X-337384Y288459D01*
X-337382Y288346D01*
X-337384Y288233D01*
X-337390Y288120D01*
X-337400Y288007D01*
X-337414Y287894D01*
X-337431Y287782D01*
X-337453Y287671D01*
X-337478Y287561D01*
X-337508Y287451D01*
X-337541Y287343D01*
X-337578Y287236D01*
X-337618Y287130D01*
X-337663Y287026D01*
X-337711Y286923D01*
X-337762Y286822D01*
X-337817Y286723D01*
X-337875Y286626D01*
X-337937Y286531D01*
X-338002Y286438D01*
X-338070Y286348D01*
X-338141Y286260D01*
X-338216Y286174D01*
X-338293Y286091D01*
X-338373Y286011D01*
X-338456Y285934D01*
X-338542Y285859D01*
X-338630Y285788D01*
X-338720Y285720D01*
X-338813Y285655D01*
X-338908Y285593D01*
X-339005Y285535D01*
X-339104Y285480D01*
X-339205Y285429D01*
X-339308Y285381D01*
X-339412Y285336D01*
X-339518Y285296D01*
X-339625Y285259D01*
X-339733Y285226D01*
X-339843Y285196D01*
X-339953Y285171D01*
X-340064Y285149D01*
X-340176Y285132D01*
X-340289Y285118D01*
X-340402Y285108D01*
X-340515Y285102D01*
X-340628Y285100D01*
X-340628Y285101D02*
X-343874Y285101D01*
X-329424Y291592D02*
X-329317Y291590D01*
X-329211Y291584D01*
X-329105Y291574D01*
X-328999Y291561D01*
X-328893Y291543D01*
X-328789Y291522D01*
X-328685Y291497D01*
X-328582Y291468D01*
X-328481Y291436D01*
X-328381Y291399D01*
X-328282Y291359D01*
X-328184Y291316D01*
X-328088Y291269D01*
X-327994Y291218D01*
X-327902Y291164D01*
X-327812Y291107D01*
X-327724Y291047D01*
X-327639Y290983D01*
X-327556Y290916D01*
X-327475Y290846D01*
X-327397Y290774D01*
X-327321Y290698D01*
X-327249Y290620D01*
X-327179Y290539D01*
X-327112Y290456D01*
X-327048Y290371D01*
X-326988Y290283D01*
X-326931Y290193D01*
X-326877Y290101D01*
X-326826Y290007D01*
X-326779Y289911D01*
X-326736Y289813D01*
X-326696Y289714D01*
X-326659Y289614D01*
X-326627Y289513D01*
X-326598Y289410D01*
X-326573Y289306D01*
X-326552Y289202D01*
X-326534Y289096D01*
X-326521Y288990D01*
X-326511Y288884D01*
X-326505Y288778D01*
X-326503Y288671D01*
X-329424Y291592D02*
X-329545Y291590D01*
X-329666Y291584D01*
X-329786Y291574D01*
X-329907Y291561D01*
X-330026Y291543D01*
X-330146Y291522D01*
X-330264Y291497D01*
X-330381Y291468D01*
X-330498Y291435D01*
X-330613Y291399D01*
X-330727Y291358D01*
X-330840Y291315D01*
X-330952Y291267D01*
X-331061Y291216D01*
X-331169Y291161D01*
X-331276Y291103D01*
X-331380Y291042D01*
X-331482Y290977D01*
X-331582Y290909D01*
X-331680Y290838D01*
X-331776Y290764D01*
X-331869Y290687D01*
X-331959Y290606D01*
X-332047Y290523D01*
X-332132Y290437D01*
X-332215Y290348D01*
X-332294Y290257D01*
X-332371Y290163D01*
X-332444Y290067D01*
X-332514Y289969D01*
X-332581Y289868D01*
X-332645Y289765D01*
X-332706Y289660D01*
X-332763Y289553D01*
X-332816Y289445D01*
X-332866Y289335D01*
X-332912Y289223D01*
X-332955Y289110D01*
X-332994Y288995D01*
X-327477Y286399D02*
X-327398Y286477D01*
X-327322Y286557D01*
X-327249Y286640D01*
X-327179Y286726D01*
X-327112Y286813D01*
X-327048Y286904D01*
X-326988Y286996D01*
X-326930Y287090D01*
X-326876Y287187D01*
X-326826Y287285D01*
X-326779Y287385D01*
X-326735Y287486D01*
X-326695Y287589D01*
X-326659Y287694D01*
X-326627Y287799D01*
X-326598Y287906D01*
X-326573Y288013D01*
X-326551Y288122D01*
X-326534Y288231D01*
X-326520Y288340D01*
X-326511Y288450D01*
X-326505Y288561D01*
X-326503Y288671D01*
X-327477Y286399D02*
X-332994Y279908D01*
X-326503Y279908D01*
X-381508Y520249D02*
X-393192Y520249D01*
X-393192Y523494D02*
X-393192Y517003D01*
X-393192Y528221D02*
X-381508Y528221D01*
X-393192Y528221D02*
X-393192Y531467D01*
X-393190Y531580D01*
X-393184Y531693D01*
X-393174Y531806D01*
X-393160Y531919D01*
X-393143Y532031D01*
X-393121Y532142D01*
X-393096Y532252D01*
X-393066Y532362D01*
X-393033Y532470D01*
X-392996Y532577D01*
X-392956Y532683D01*
X-392911Y532787D01*
X-392863Y532890D01*
X-392812Y532991D01*
X-392757Y533090D01*
X-392699Y533187D01*
X-392637Y533282D01*
X-392572Y533375D01*
X-392504Y533465D01*
X-392433Y533553D01*
X-392358Y533639D01*
X-392281Y533722D01*
X-392201Y533802D01*
X-392118Y533879D01*
X-392032Y533954D01*
X-391944Y534025D01*
X-391854Y534093D01*
X-391761Y534158D01*
X-391666Y534220D01*
X-391569Y534278D01*
X-391470Y534333D01*
X-391369Y534384D01*
X-391266Y534432D01*
X-391162Y534477D01*
X-391056Y534517D01*
X-390949Y534554D01*
X-390841Y534587D01*
X-390731Y534617D01*
X-390621Y534642D01*
X-390510Y534664D01*
X-390398Y534681D01*
X-390285Y534695D01*
X-390172Y534705D01*
X-390059Y534711D01*
X-389946Y534713D01*
X-389833Y534711D01*
X-389720Y534705D01*
X-389607Y534695D01*
X-389494Y534681D01*
X-389382Y534664D01*
X-389271Y534642D01*
X-389161Y534617D01*
X-389051Y534587D01*
X-388943Y534554D01*
X-388836Y534517D01*
X-388730Y534477D01*
X-388626Y534432D01*
X-388523Y534384D01*
X-388422Y534333D01*
X-388323Y534278D01*
X-388226Y534220D01*
X-388131Y534158D01*
X-388038Y534093D01*
X-387948Y534025D01*
X-387860Y533954D01*
X-387774Y533879D01*
X-387691Y533802D01*
X-387611Y533722D01*
X-387534Y533639D01*
X-387459Y533553D01*
X-387388Y533465D01*
X-387320Y533375D01*
X-387255Y533282D01*
X-387193Y533187D01*
X-387135Y533090D01*
X-387080Y532991D01*
X-387029Y532890D01*
X-386981Y532787D01*
X-386936Y532683D01*
X-386896Y532577D01*
X-386859Y532470D01*
X-386826Y532362D01*
X-386796Y532252D01*
X-386771Y532142D01*
X-386749Y532031D01*
X-386732Y531919D01*
X-386718Y531806D01*
X-386708Y531693D01*
X-386702Y531580D01*
X-386700Y531467D01*
X-386701Y531467D02*
X-386701Y528221D01*
X-381508Y539101D02*
X-381508Y542346D01*
X-381510Y542459D01*
X-381516Y542572D01*
X-381526Y542685D01*
X-381540Y542798D01*
X-381557Y542910D01*
X-381579Y543021D01*
X-381604Y543131D01*
X-381634Y543241D01*
X-381667Y543349D01*
X-381704Y543456D01*
X-381744Y543562D01*
X-381789Y543666D01*
X-381837Y543769D01*
X-381888Y543870D01*
X-381943Y543969D01*
X-382001Y544066D01*
X-382063Y544161D01*
X-382128Y544254D01*
X-382196Y544344D01*
X-382267Y544432D01*
X-382342Y544518D01*
X-382419Y544601D01*
X-382499Y544681D01*
X-382582Y544758D01*
X-382668Y544833D01*
X-382756Y544904D01*
X-382846Y544972D01*
X-382939Y545037D01*
X-383034Y545099D01*
X-383131Y545157D01*
X-383230Y545212D01*
X-383331Y545263D01*
X-383434Y545311D01*
X-383538Y545356D01*
X-383644Y545396D01*
X-383751Y545433D01*
X-383859Y545466D01*
X-383969Y545496D01*
X-384079Y545521D01*
X-384190Y545543D01*
X-384302Y545560D01*
X-384415Y545574D01*
X-384528Y545584D01*
X-384641Y545590D01*
X-384754Y545592D01*
X-384867Y545590D01*
X-384980Y545584D01*
X-385093Y545574D01*
X-385206Y545560D01*
X-385318Y545543D01*
X-385429Y545521D01*
X-385539Y545496D01*
X-385649Y545466D01*
X-385757Y545433D01*
X-385864Y545396D01*
X-385970Y545356D01*
X-386074Y545311D01*
X-386177Y545263D01*
X-386278Y545212D01*
X-386377Y545157D01*
X-386474Y545099D01*
X-386569Y545037D01*
X-386662Y544972D01*
X-386752Y544904D01*
X-386840Y544833D01*
X-386926Y544758D01*
X-387009Y544681D01*
X-387089Y544601D01*
X-387166Y544518D01*
X-387241Y544432D01*
X-387312Y544344D01*
X-387380Y544254D01*
X-387445Y544161D01*
X-387507Y544066D01*
X-387565Y543969D01*
X-387620Y543870D01*
X-387671Y543769D01*
X-387719Y543666D01*
X-387764Y543562D01*
X-387804Y543456D01*
X-387841Y543349D01*
X-387874Y543241D01*
X-387904Y543131D01*
X-387929Y543021D01*
X-387951Y542910D01*
X-387968Y542798D01*
X-387982Y542685D01*
X-387992Y542572D01*
X-387998Y542459D01*
X-388000Y542346D01*
X-393192Y542996D02*
X-393192Y539101D01*
X-393192Y542996D02*
X-393190Y543097D01*
X-393184Y543197D01*
X-393174Y543297D01*
X-393161Y543397D01*
X-393143Y543496D01*
X-393122Y543595D01*
X-393097Y543692D01*
X-393068Y543789D01*
X-393035Y543884D01*
X-392999Y543978D01*
X-392959Y544070D01*
X-392916Y544161D01*
X-392869Y544250D01*
X-392819Y544337D01*
X-392765Y544423D01*
X-392708Y544506D01*
X-392648Y544586D01*
X-392585Y544665D01*
X-392518Y544741D01*
X-392449Y544814D01*
X-392377Y544884D01*
X-392303Y544952D01*
X-392226Y545017D01*
X-392146Y545078D01*
X-392064Y545137D01*
X-391980Y545192D01*
X-391894Y545244D01*
X-391806Y545293D01*
X-391716Y545338D01*
X-391624Y545380D01*
X-391531Y545418D01*
X-391436Y545452D01*
X-391341Y545483D01*
X-391244Y545510D01*
X-391146Y545533D01*
X-391047Y545553D01*
X-390947Y545568D01*
X-390847Y545580D01*
X-390747Y545588D01*
X-390646Y545592D01*
X-390546Y545592D01*
X-390445Y545588D01*
X-390345Y545580D01*
X-390245Y545568D01*
X-390145Y545553D01*
X-390046Y545533D01*
X-389948Y545510D01*
X-389851Y545483D01*
X-389756Y545452D01*
X-389661Y545418D01*
X-389568Y545380D01*
X-389476Y545338D01*
X-389386Y545293D01*
X-389298Y545244D01*
X-389212Y545192D01*
X-389128Y545137D01*
X-389046Y545078D01*
X-388966Y545017D01*
X-388889Y544952D01*
X-388815Y544884D01*
X-388743Y544814D01*
X-388674Y544741D01*
X-388607Y544665D01*
X-388544Y544586D01*
X-388484Y544506D01*
X-388427Y544423D01*
X-388373Y544337D01*
X-388323Y544250D01*
X-388276Y544161D01*
X-388233Y544070D01*
X-388193Y543978D01*
X-388157Y543884D01*
X-388124Y543789D01*
X-388095Y543692D01*
X-388070Y543595D01*
X-388049Y543496D01*
X-388031Y543397D01*
X-388018Y543297D01*
X-388008Y543197D01*
X-388002Y543097D01*
X-388000Y542996D01*
X-387999Y542996D02*
X-387999Y540399D01*
X-1037646Y546608D02*
X-1037646Y558292D01*
X-1034401Y558292D02*
X-1040892Y558292D01*
X-1029674Y558292D02*
X-1029674Y546608D01*
X-1029674Y558292D02*
X-1026428Y558292D01*
X-1026315Y558290D01*
X-1026202Y558284D01*
X-1026089Y558274D01*
X-1025976Y558260D01*
X-1025864Y558243D01*
X-1025753Y558221D01*
X-1025643Y558196D01*
X-1025533Y558166D01*
X-1025425Y558133D01*
X-1025318Y558096D01*
X-1025212Y558056D01*
X-1025108Y558011D01*
X-1025005Y557963D01*
X-1024904Y557912D01*
X-1024805Y557857D01*
X-1024708Y557799D01*
X-1024613Y557737D01*
X-1024520Y557672D01*
X-1024430Y557604D01*
X-1024342Y557533D01*
X-1024256Y557458D01*
X-1024173Y557381D01*
X-1024093Y557301D01*
X-1024016Y557218D01*
X-1023941Y557132D01*
X-1023870Y557044D01*
X-1023802Y556954D01*
X-1023737Y556861D01*
X-1023675Y556766D01*
X-1023617Y556669D01*
X-1023562Y556570D01*
X-1023511Y556469D01*
X-1023463Y556366D01*
X-1023418Y556262D01*
X-1023378Y556156D01*
X-1023341Y556049D01*
X-1023308Y555941D01*
X-1023278Y555831D01*
X-1023253Y555721D01*
X-1023231Y555610D01*
X-1023214Y555498D01*
X-1023200Y555385D01*
X-1023190Y555272D01*
X-1023184Y555159D01*
X-1023182Y555046D01*
X-1023184Y554933D01*
X-1023190Y554820D01*
X-1023200Y554707D01*
X-1023214Y554594D01*
X-1023231Y554482D01*
X-1023253Y554371D01*
X-1023278Y554261D01*
X-1023308Y554151D01*
X-1023341Y554043D01*
X-1023378Y553936D01*
X-1023418Y553830D01*
X-1023463Y553726D01*
X-1023511Y553623D01*
X-1023562Y553522D01*
X-1023617Y553423D01*
X-1023675Y553326D01*
X-1023737Y553231D01*
X-1023802Y553138D01*
X-1023870Y553048D01*
X-1023941Y552960D01*
X-1024016Y552874D01*
X-1024093Y552791D01*
X-1024173Y552711D01*
X-1024256Y552634D01*
X-1024342Y552559D01*
X-1024430Y552488D01*
X-1024520Y552420D01*
X-1024613Y552355D01*
X-1024708Y552293D01*
X-1024805Y552235D01*
X-1024904Y552180D01*
X-1025005Y552129D01*
X-1025108Y552081D01*
X-1025212Y552036D01*
X-1025318Y551996D01*
X-1025425Y551959D01*
X-1025533Y551926D01*
X-1025643Y551896D01*
X-1025753Y551871D01*
X-1025864Y551849D01*
X-1025976Y551832D01*
X-1026089Y551818D01*
X-1026202Y551808D01*
X-1026315Y551802D01*
X-1026428Y551800D01*
X-1026428Y551801D02*
X-1029674Y551801D01*
X-1018794Y549204D02*
X-1016198Y558292D01*
X-1018794Y549204D02*
X-1012303Y549204D01*
X-1014250Y551801D02*
X-1014250Y546608D01*
D16*
X-304419Y77437D02*
X-303234Y73881D01*
X-302048Y77437D01*
X-298148Y79215D02*
X-298076Y79213D01*
X-298004Y79207D01*
X-297932Y79197D01*
X-297861Y79184D01*
X-297791Y79166D01*
X-297722Y79145D01*
X-297654Y79120D01*
X-297588Y79092D01*
X-297523Y79060D01*
X-297460Y79024D01*
X-297399Y78985D01*
X-297341Y78943D01*
X-297284Y78898D01*
X-297231Y78849D01*
X-297180Y78798D01*
X-297131Y78745D01*
X-297086Y78688D01*
X-297044Y78630D01*
X-297005Y78569D01*
X-296969Y78506D01*
X-296937Y78441D01*
X-296909Y78375D01*
X-296884Y78307D01*
X-296863Y78238D01*
X-296845Y78168D01*
X-296832Y78097D01*
X-296822Y78025D01*
X-296816Y77953D01*
X-296814Y77881D01*
X-298148Y79215D02*
X-298228Y79213D01*
X-298307Y79208D01*
X-298387Y79198D01*
X-298465Y79185D01*
X-298543Y79169D01*
X-298621Y79149D01*
X-298697Y79125D01*
X-298772Y79097D01*
X-298845Y79067D01*
X-298917Y79033D01*
X-298988Y78995D01*
X-299056Y78954D01*
X-299123Y78910D01*
X-299188Y78864D01*
X-299250Y78814D01*
X-299310Y78761D01*
X-299367Y78705D01*
X-299422Y78647D01*
X-299474Y78587D01*
X-299523Y78524D01*
X-299569Y78459D01*
X-299612Y78392D01*
X-299652Y78322D01*
X-299688Y78252D01*
X-299722Y78179D01*
X-299751Y78105D01*
X-299778Y78030D01*
X-297259Y76844D02*
X-297208Y76895D01*
X-297160Y76949D01*
X-297114Y77005D01*
X-297071Y77064D01*
X-297031Y77124D01*
X-296995Y77187D01*
X-296961Y77251D01*
X-296931Y77317D01*
X-296904Y77384D01*
X-296881Y77453D01*
X-296861Y77522D01*
X-296844Y77593D01*
X-296831Y77664D01*
X-296822Y77736D01*
X-296817Y77809D01*
X-296815Y77881D01*
X-297259Y76844D02*
X-299778Y73881D01*
X-296814Y73881D01*
X-294604Y73881D02*
X-294604Y74177D01*
X-294307Y74177D01*
X-294307Y73881D01*
X-294604Y73881D01*
X-292097Y76548D02*
X-292095Y76673D01*
X-292090Y76797D01*
X-292081Y76921D01*
X-292069Y77045D01*
X-292053Y77169D01*
X-292034Y77292D01*
X-292011Y77415D01*
X-291984Y77537D01*
X-291955Y77658D01*
X-291922Y77778D01*
X-291885Y77897D01*
X-291845Y78015D01*
X-291802Y78132D01*
X-291755Y78247D01*
X-291705Y78362D01*
X-291652Y78474D01*
X-291629Y78535D01*
X-291603Y78594D01*
X-291573Y78652D01*
X-291540Y78707D01*
X-291503Y78761D01*
X-291464Y78812D01*
X-291422Y78861D01*
X-291376Y78907D01*
X-291328Y78951D01*
X-291278Y78992D01*
X-291225Y79029D01*
X-291171Y79064D01*
X-291114Y79095D01*
X-291055Y79123D01*
X-290995Y79147D01*
X-290934Y79168D01*
X-290872Y79185D01*
X-290808Y79198D01*
X-290744Y79207D01*
X-290680Y79213D01*
X-290615Y79215D01*
X-290550Y79213D01*
X-290486Y79207D01*
X-290422Y79198D01*
X-290358Y79185D01*
X-290296Y79168D01*
X-290235Y79147D01*
X-290175Y79123D01*
X-290116Y79095D01*
X-290059Y79064D01*
X-290005Y79029D01*
X-289952Y78992D01*
X-289902Y78951D01*
X-289854Y78907D01*
X-289808Y78861D01*
X-289766Y78812D01*
X-289727Y78761D01*
X-289690Y78707D01*
X-289657Y78652D01*
X-289627Y78594D01*
X-289601Y78535D01*
X-289578Y78474D01*
X-289525Y78362D01*
X-289475Y78247D01*
X-289428Y78132D01*
X-289385Y78015D01*
X-289345Y77897D01*
X-289308Y77778D01*
X-289275Y77658D01*
X-289246Y77537D01*
X-289219Y77415D01*
X-289196Y77292D01*
X-289177Y77169D01*
X-289161Y77045D01*
X-289149Y76921D01*
X-289140Y76797D01*
X-289135Y76673D01*
X-289133Y76548D01*
X-292097Y76548D02*
X-292095Y76423D01*
X-292090Y76299D01*
X-292081Y76175D01*
X-292069Y76051D01*
X-292053Y75927D01*
X-292034Y75804D01*
X-292011Y75681D01*
X-291984Y75560D01*
X-291955Y75439D01*
X-291922Y75318D01*
X-291885Y75199D01*
X-291845Y75081D01*
X-291802Y74964D01*
X-291755Y74849D01*
X-291705Y74734D01*
X-291652Y74622D01*
X-291629Y74561D01*
X-291603Y74502D01*
X-291573Y74444D01*
X-291540Y74389D01*
X-291503Y74335D01*
X-291464Y74284D01*
X-291422Y74235D01*
X-291376Y74189D01*
X-291328Y74145D01*
X-291278Y74104D01*
X-291225Y74067D01*
X-291171Y74032D01*
X-291114Y74001D01*
X-291055Y73973D01*
X-290995Y73949D01*
X-290934Y73928D01*
X-290872Y73911D01*
X-290808Y73898D01*
X-290744Y73889D01*
X-290680Y73883D01*
X-290615Y73881D01*
X-289578Y74622D02*
X-289525Y74734D01*
X-289475Y74849D01*
X-289428Y74964D01*
X-289385Y75081D01*
X-289345Y75199D01*
X-289308Y75318D01*
X-289275Y75439D01*
X-289246Y75560D01*
X-289219Y75681D01*
X-289196Y75804D01*
X-289177Y75927D01*
X-289161Y76051D01*
X-289149Y76175D01*
X-289140Y76299D01*
X-289135Y76423D01*
X-289133Y76548D01*
X-289578Y74622D02*
X-289601Y74561D01*
X-289627Y74502D01*
X-289657Y74444D01*
X-289690Y74389D01*
X-289727Y74335D01*
X-289766Y74284D01*
X-289808Y74235D01*
X-289854Y74189D01*
X-289902Y74145D01*
X-289952Y74104D01*
X-290005Y74067D01*
X-290059Y74032D01*
X-290116Y74001D01*
X-290175Y73973D01*
X-290235Y73949D01*
X-290296Y73928D01*
X-290358Y73911D01*
X-290422Y73898D01*
X-290486Y73889D01*
X-290550Y73883D01*
X-290615Y73881D01*
X-291800Y75066D02*
X-289430Y78030D01*
X-1046419Y618833D02*
X-1046419Y624167D01*
X-1044048Y624167D01*
X-1044048Y621796D02*
X-1046419Y621796D01*
X-1041633Y624167D02*
X-1041633Y618833D01*
X-1041633Y624167D02*
X-1040151Y624167D01*
X-1040075Y624165D01*
X-1039999Y624159D01*
X-1039923Y624149D01*
X-1039848Y624136D01*
X-1039774Y624118D01*
X-1039700Y624097D01*
X-1039628Y624072D01*
X-1039558Y624043D01*
X-1039488Y624011D01*
X-1039421Y623975D01*
X-1039356Y623935D01*
X-1039292Y623893D01*
X-1039231Y623847D01*
X-1039173Y623798D01*
X-1039117Y623746D01*
X-1039063Y623692D01*
X-1039013Y623634D01*
X-1038966Y623575D01*
X-1038921Y623512D01*
X-1038880Y623448D01*
X-1038843Y623382D01*
X-1038809Y623313D01*
X-1038778Y623243D01*
X-1038751Y623172D01*
X-1038728Y623099D01*
X-1038709Y623025D01*
X-1038693Y622951D01*
X-1038681Y622875D01*
X-1038673Y622799D01*
X-1038669Y622723D01*
X-1038669Y622647D01*
X-1038673Y622571D01*
X-1038681Y622495D01*
X-1038693Y622419D01*
X-1038709Y622345D01*
X-1038728Y622271D01*
X-1038751Y622198D01*
X-1038778Y622127D01*
X-1038809Y622057D01*
X-1038843Y621988D01*
X-1038880Y621922D01*
X-1038921Y621858D01*
X-1038966Y621795D01*
X-1039013Y621736D01*
X-1039063Y621678D01*
X-1039117Y621624D01*
X-1039173Y621572D01*
X-1039231Y621523D01*
X-1039292Y621477D01*
X-1039356Y621435D01*
X-1039421Y621395D01*
X-1039488Y621359D01*
X-1039558Y621327D01*
X-1039628Y621298D01*
X-1039700Y621273D01*
X-1039774Y621252D01*
X-1039848Y621234D01*
X-1039923Y621221D01*
X-1039999Y621211D01*
X-1040075Y621205D01*
X-1040151Y621203D01*
X-1040151Y621204D02*
X-1041633Y621204D01*
X-1039855Y621204D02*
X-1038669Y618833D01*
X-1036192Y620018D02*
X-1035006Y624167D01*
X-1036192Y620018D02*
X-1033228Y620018D01*
X-1034117Y618833D02*
X-1034117Y621204D01*
D12*
X-768002Y489035D02*
X-768000Y489098D01*
X-767994Y489160D01*
X-767984Y489222D01*
X-767971Y489284D01*
X-767953Y489344D01*
X-767932Y489403D01*
X-767907Y489461D01*
X-767878Y489517D01*
X-767846Y489571D01*
X-767811Y489623D01*
X-767773Y489672D01*
X-767731Y489720D01*
X-767687Y489764D01*
X-767639Y489806D01*
X-767590Y489844D01*
X-767538Y489879D01*
X-767484Y489911D01*
X-767428Y489940D01*
X-767370Y489965D01*
X-767311Y489986D01*
X-767251Y490004D01*
X-767189Y490017D01*
X-767127Y490027D01*
X-767065Y490033D01*
X-767002Y490035D01*
X-766939Y490033D01*
X-766877Y490027D01*
X-766815Y490017D01*
X-766753Y490004D01*
X-766693Y489986D01*
X-766634Y489965D01*
X-766576Y489940D01*
X-766520Y489911D01*
X-766466Y489879D01*
X-766414Y489844D01*
X-766365Y489806D01*
X-766317Y489764D01*
X-766273Y489720D01*
X-766231Y489672D01*
X-766193Y489623D01*
X-766158Y489571D01*
X-766126Y489517D01*
X-766097Y489461D01*
X-766072Y489403D01*
X-766051Y489344D01*
X-766033Y489284D01*
X-766020Y489222D01*
X-766010Y489160D01*
X-766004Y489098D01*
X-766002Y489035D01*
X-766004Y488972D01*
X-766010Y488910D01*
X-766020Y488848D01*
X-766033Y488786D01*
X-766051Y488726D01*
X-766072Y488667D01*
X-766097Y488609D01*
X-766126Y488553D01*
X-766158Y488499D01*
X-766193Y488447D01*
X-766231Y488398D01*
X-766273Y488350D01*
X-766317Y488306D01*
X-766365Y488264D01*
X-766414Y488226D01*
X-766466Y488191D01*
X-766520Y488159D01*
X-766576Y488130D01*
X-766634Y488105D01*
X-766693Y488084D01*
X-766753Y488066D01*
X-766815Y488053D01*
X-766877Y488043D01*
X-766939Y488037D01*
X-767002Y488035D01*
X-767065Y488037D01*
X-767127Y488043D01*
X-767189Y488053D01*
X-767251Y488066D01*
X-767311Y488084D01*
X-767370Y488105D01*
X-767428Y488130D01*
X-767484Y488159D01*
X-767538Y488191D01*
X-767590Y488226D01*
X-767639Y488264D01*
X-767687Y488306D01*
X-767731Y488350D01*
X-767773Y488398D01*
X-767811Y488447D01*
X-767846Y488499D01*
X-767878Y488553D01*
X-767907Y488609D01*
X-767932Y488667D01*
X-767953Y488726D01*
X-767971Y488786D01*
X-767984Y488848D01*
X-767994Y488910D01*
X-768000Y488972D01*
X-768002Y489035D01*
D11*
X-764700Y483600D02*
X-784700Y483600D01*
X-784700Y456200D02*
X-764700Y456200D01*
D10*
X-766572Y489190D02*
X-758134Y489190D01*
X-758134Y489189D02*
X-758021Y489191D01*
X-757908Y489197D01*
X-757795Y489207D01*
X-757682Y489221D01*
X-757570Y489238D01*
X-757459Y489260D01*
X-757349Y489285D01*
X-757239Y489315D01*
X-757131Y489348D01*
X-757024Y489385D01*
X-756918Y489425D01*
X-756814Y489470D01*
X-756711Y489518D01*
X-756610Y489569D01*
X-756511Y489624D01*
X-756414Y489682D01*
X-756319Y489744D01*
X-756226Y489809D01*
X-756136Y489877D01*
X-756048Y489948D01*
X-755962Y490023D01*
X-755879Y490100D01*
X-755799Y490180D01*
X-755722Y490263D01*
X-755647Y490349D01*
X-755576Y490437D01*
X-755508Y490527D01*
X-755443Y490620D01*
X-755381Y490715D01*
X-755323Y490812D01*
X-755268Y490911D01*
X-755217Y491012D01*
X-755169Y491115D01*
X-755124Y491219D01*
X-755084Y491325D01*
X-755047Y491432D01*
X-755014Y491540D01*
X-754984Y491650D01*
X-754959Y491760D01*
X-754937Y491871D01*
X-754920Y491983D01*
X-754906Y492096D01*
X-754896Y492209D01*
X-754890Y492322D01*
X-754888Y492435D01*
X-754890Y492548D01*
X-754896Y492661D01*
X-754906Y492774D01*
X-754920Y492887D01*
X-754937Y492999D01*
X-754959Y493110D01*
X-754984Y493220D01*
X-755014Y493330D01*
X-755047Y493438D01*
X-755084Y493545D01*
X-755124Y493651D01*
X-755169Y493755D01*
X-755217Y493858D01*
X-755268Y493959D01*
X-755323Y494058D01*
X-755381Y494155D01*
X-755443Y494250D01*
X-755508Y494343D01*
X-755576Y494433D01*
X-755647Y494521D01*
X-755722Y494607D01*
X-755799Y494690D01*
X-755879Y494770D01*
X-755962Y494847D01*
X-756048Y494922D01*
X-756136Y494993D01*
X-756226Y495061D01*
X-756319Y495126D01*
X-756414Y495188D01*
X-756511Y495246D01*
X-756610Y495301D01*
X-756711Y495352D01*
X-756814Y495400D01*
X-756918Y495445D01*
X-757024Y495485D01*
X-757131Y495522D01*
X-757239Y495555D01*
X-757349Y495585D01*
X-757459Y495610D01*
X-757570Y495632D01*
X-757682Y495649D01*
X-757795Y495663D01*
X-757908Y495673D01*
X-758021Y495679D01*
X-758134Y495681D01*
X-766572Y495681D01*
X-763976Y501001D02*
X-766572Y504246D01*
X-754888Y504246D01*
X-754888Y501001D02*
X-754888Y507492D01*
M02*
