G04 EAGLE Gerber RS-274X export*
G75*
%MOMM*%
%FSLAX34Y34*%
%LPD*%
%INSilkscreen Bottom*%
%IPPOS*%
%AMOC8*
5,1,8,0,0,1.08239X$1,22.5*%
G01*
%ADD10C,0.076200*%

G36*
X-1018279Y604025D02*
X-1018279Y604025D01*
X-1018250Y604023D01*
X-1017593Y604110D01*
X-1017557Y604123D01*
X-1017497Y604135D01*
X-1016885Y604389D01*
X-1016854Y604411D01*
X-1016799Y604439D01*
X-1016272Y604842D01*
X-1016248Y604872D01*
X-1016202Y604912D01*
X-1015799Y605439D01*
X-1015783Y605473D01*
X-1015749Y605525D01*
X-1015495Y606137D01*
X-1015489Y606175D01*
X-1015471Y606227D01*
X-1015471Y606229D01*
X-1015470Y606233D01*
X-1015383Y606890D01*
X-1015385Y606912D01*
X-1015380Y606940D01*
X-1015380Y614560D01*
X-1015385Y614581D01*
X-1015383Y614610D01*
X-1015470Y615267D01*
X-1015483Y615303D01*
X-1015495Y615363D01*
X-1015749Y615976D01*
X-1015771Y616006D01*
X-1015799Y616061D01*
X-1016202Y616588D01*
X-1016232Y616612D01*
X-1016272Y616658D01*
X-1016799Y617061D01*
X-1016833Y617077D01*
X-1016885Y617111D01*
X-1017497Y617365D01*
X-1017535Y617371D01*
X-1017593Y617390D01*
X-1018250Y617477D01*
X-1018272Y617475D01*
X-1018300Y617480D01*
X-1023361Y617480D01*
X-1024544Y617597D01*
X-1025664Y617936D01*
X-1026696Y618488D01*
X-1027600Y619230D01*
X-1028342Y620134D01*
X-1028894Y621166D01*
X-1029233Y622286D01*
X-1029350Y623469D01*
X-1029350Y628530D01*
X-1029355Y628551D01*
X-1029353Y628580D01*
X-1029440Y629237D01*
X-1029453Y629273D01*
X-1029465Y629333D01*
X-1029719Y629946D01*
X-1029741Y629976D01*
X-1029769Y630031D01*
X-1030172Y630558D01*
X-1030202Y630582D01*
X-1030242Y630628D01*
X-1030769Y631031D01*
X-1030803Y631047D01*
X-1030855Y631081D01*
X-1031467Y631335D01*
X-1031505Y631341D01*
X-1031563Y631360D01*
X-1032220Y631447D01*
X-1032242Y631445D01*
X-1032270Y631450D01*
X-1039890Y631450D01*
X-1039911Y631445D01*
X-1039940Y631447D01*
X-1040597Y631360D01*
X-1040633Y631347D01*
X-1040693Y631335D01*
X-1041306Y631081D01*
X-1041336Y631059D01*
X-1041391Y631031D01*
X-1041918Y630628D01*
X-1041942Y630598D01*
X-1041988Y630558D01*
X-1042391Y630031D01*
X-1042407Y629997D01*
X-1042441Y629946D01*
X-1042695Y629333D01*
X-1042701Y629296D01*
X-1042720Y629237D01*
X-1042807Y628580D01*
X-1042805Y628558D01*
X-1042810Y628530D01*
X-1042810Y620910D01*
X-1042805Y620889D01*
X-1042807Y620860D01*
X-1042720Y620203D01*
X-1042707Y620167D01*
X-1042695Y620107D01*
X-1042441Y619495D01*
X-1042419Y619464D01*
X-1042391Y619409D01*
X-1041988Y618882D01*
X-1041958Y618858D01*
X-1041918Y618812D01*
X-1041391Y618409D01*
X-1041357Y618393D01*
X-1041306Y618359D01*
X-1040693Y618105D01*
X-1040656Y618099D01*
X-1040597Y618080D01*
X-1039940Y617993D01*
X-1039918Y617995D01*
X-1039890Y617990D01*
X-1034829Y617990D01*
X-1033646Y617873D01*
X-1032526Y617534D01*
X-1031494Y616982D01*
X-1030590Y616240D01*
X-1029848Y615336D01*
X-1029296Y614304D01*
X-1028957Y613184D01*
X-1028840Y612001D01*
X-1028840Y606940D01*
X-1028835Y606919D01*
X-1028837Y606890D01*
X-1028750Y606233D01*
X-1028743Y606213D01*
X-1028743Y606201D01*
X-1028735Y606186D01*
X-1028725Y606137D01*
X-1028471Y605525D01*
X-1028449Y605494D01*
X-1028421Y605439D01*
X-1028018Y604912D01*
X-1028013Y604909D01*
X-1028013Y604908D01*
X-1028006Y604903D01*
X-1027988Y604888D01*
X-1027948Y604842D01*
X-1027421Y604439D01*
X-1027387Y604423D01*
X-1027336Y604389D01*
X-1026723Y604135D01*
X-1026686Y604129D01*
X-1026627Y604110D01*
X-1025970Y604023D01*
X-1025948Y604025D01*
X-1025920Y604020D01*
X-1018300Y604020D01*
X-1018279Y604025D01*
G37*
G36*
X-1046219Y604025D02*
X-1046219Y604025D01*
X-1046190Y604023D01*
X-1045533Y604110D01*
X-1045497Y604123D01*
X-1045437Y604135D01*
X-1044825Y604389D01*
X-1044794Y604411D01*
X-1044739Y604439D01*
X-1044212Y604842D01*
X-1044188Y604872D01*
X-1044142Y604912D01*
X-1043739Y605439D01*
X-1043723Y605473D01*
X-1043689Y605525D01*
X-1043435Y606137D01*
X-1043429Y606175D01*
X-1043411Y606228D01*
X-1043411Y606229D01*
X-1043410Y606233D01*
X-1043323Y606890D01*
X-1043325Y606912D01*
X-1043320Y606940D01*
X-1043320Y614560D01*
X-1043325Y614581D01*
X-1043323Y614610D01*
X-1043410Y615267D01*
X-1043423Y615303D01*
X-1043435Y615363D01*
X-1043689Y615976D01*
X-1043711Y616006D01*
X-1043739Y616061D01*
X-1044142Y616588D01*
X-1044172Y616612D01*
X-1044212Y616658D01*
X-1044739Y617061D01*
X-1044773Y617077D01*
X-1044825Y617111D01*
X-1045437Y617365D01*
X-1045475Y617371D01*
X-1045533Y617390D01*
X-1046190Y617477D01*
X-1046212Y617475D01*
X-1046240Y617480D01*
X-1053860Y617480D01*
X-1053881Y617475D01*
X-1053910Y617477D01*
X-1054567Y617390D01*
X-1054603Y617377D01*
X-1054663Y617365D01*
X-1055276Y617111D01*
X-1055306Y617089D01*
X-1055361Y617061D01*
X-1055888Y616658D01*
X-1055912Y616628D01*
X-1055958Y616588D01*
X-1056361Y616061D01*
X-1056377Y616027D01*
X-1056411Y615976D01*
X-1056665Y615363D01*
X-1056671Y615326D01*
X-1056690Y615267D01*
X-1056777Y614610D01*
X-1056775Y614588D01*
X-1056780Y614560D01*
X-1056780Y606940D01*
X-1056775Y606919D01*
X-1056777Y606890D01*
X-1056690Y606233D01*
X-1056683Y606213D01*
X-1056683Y606201D01*
X-1056675Y606186D01*
X-1056665Y606137D01*
X-1056411Y605525D01*
X-1056389Y605494D01*
X-1056361Y605439D01*
X-1055958Y604912D01*
X-1055953Y604909D01*
X-1055953Y604908D01*
X-1055946Y604903D01*
X-1055928Y604888D01*
X-1055888Y604842D01*
X-1055361Y604439D01*
X-1055327Y604423D01*
X-1055276Y604389D01*
X-1054663Y604135D01*
X-1054626Y604129D01*
X-1054567Y604110D01*
X-1053910Y604023D01*
X-1053888Y604025D01*
X-1053860Y604020D01*
X-1046240Y604020D01*
X-1046219Y604025D01*
G37*
D10*
X-268372Y86167D02*
X-268372Y80833D01*
X-266001Y80833D01*
X-266001Y83204D02*
X-268372Y83204D01*
X-263585Y80833D02*
X-263585Y86167D01*
X-263585Y80833D02*
X-262104Y80833D01*
X-262028Y80835D01*
X-261952Y80841D01*
X-261876Y80851D01*
X-261801Y80864D01*
X-261727Y80882D01*
X-261653Y80903D01*
X-261581Y80928D01*
X-261511Y80957D01*
X-261441Y80989D01*
X-261374Y81025D01*
X-261309Y81065D01*
X-261245Y81107D01*
X-261184Y81153D01*
X-261126Y81202D01*
X-261070Y81254D01*
X-261016Y81308D01*
X-260966Y81366D01*
X-260919Y81425D01*
X-260874Y81488D01*
X-260833Y81552D01*
X-260796Y81618D01*
X-260762Y81687D01*
X-260731Y81757D01*
X-260704Y81828D01*
X-260681Y81901D01*
X-260662Y81975D01*
X-260646Y82049D01*
X-260634Y82125D01*
X-260626Y82201D01*
X-260622Y82277D01*
X-260622Y82353D01*
X-260626Y82429D01*
X-260634Y82505D01*
X-260646Y82581D01*
X-260662Y82655D01*
X-260681Y82729D01*
X-260704Y82802D01*
X-260731Y82873D01*
X-260762Y82943D01*
X-260796Y83012D01*
X-260833Y83078D01*
X-260874Y83142D01*
X-260919Y83205D01*
X-260966Y83264D01*
X-261016Y83322D01*
X-261070Y83376D01*
X-261126Y83428D01*
X-261184Y83477D01*
X-261245Y83523D01*
X-261309Y83565D01*
X-261374Y83605D01*
X-261441Y83641D01*
X-261511Y83673D01*
X-261581Y83702D01*
X-261653Y83727D01*
X-261727Y83748D01*
X-261801Y83766D01*
X-261876Y83779D01*
X-261952Y83789D01*
X-262028Y83795D01*
X-262104Y83797D01*
X-262104Y83796D02*
X-263585Y83796D01*
X-261807Y83796D02*
X-260622Y86167D01*
X-258144Y84982D02*
X-256959Y80833D01*
X-258144Y84982D02*
X-255181Y84982D01*
X-256070Y86167D02*
X-256070Y83796D01*
M02*
